<svg xmlns="http://www.w3.org/2000/svg" xmlns:xlink="http://www.w3.org/1999/xlink" width="980" height="238.81"><rect width="980" height="238.81" rx="0" ry="0" class="a"/><svg height="238.81" viewBox="0 0 98 23.881" width="980" xmlns="http://www.w3.org/2000/svg" xmlns:xlink="http://www.w3.org/1999/xlink"><style>@keyframes i{0%{transform:translateX(0)}2.3%{transform:translateX(-98px)}2.5%{transform:translateX(-196px)}10.2%{transform:translateX(-294px)}11%{transform:translateX(-392px)}13.6%{transform:translateX(-490px)}14.4%{transform:translateX(-588px)}17.2%{transform:translateX(-686px)}19.3%{transform:translateX(-784px)}26.9%{transform:translateX(-882px)}37.7%{transform:translateX(-980px)}38.9%{transform:translateX(-1274px)}55.4%{transform:translateX(-1470px)}57.8%{transform:translateX(-1568px)}61.2%{transform:translateX(-1666px)}67.8%{transform:translateX(-1764px)}71.4%{transform:translateX(-1862px)}76%{transform:translateX(-1960px)}85.3%{transform:translateX(-2450px)}85.6%{transform:translateX(-2548px)}96.7%{transform:translateX(-2646px)}98.3%{transform:translateX(-2744px)}98.8%{transform:translateX(-2842px)}99.5%{transform:translateX(-2940px)}to{transform:translateX(-3038px)}}.a{fill:#282d35}.c,.d,.e,.f{fill:#9df;white-space:pre}.d,.e,.f{fill:#875fff}.e,.f{fill:#b9c0cb}.f{fill:#66c2cd}</style><g font-family="Monaco,Consolas,Menlo,'Bitstream Vera Sans Mono','Powerline Symbols',monospace" font-size="1.67"><defs><symbol id="1"><text y="1.67" class="c">ink-cli-demo</text><text x="13.026" y="1.67" class="d">$</text></symbol><symbol id="2"><text y="1.67" class="c">ink-cli-demo</text><text x="13.026" y="1.67" class="d">$</text><text x="15.03" y="1.67" class="e">./ink-cli-demo-single-file.tsx</text></symbol><symbol id="3"><text y="1.67" class="e">Pick</text><text x="5.01" y="1.67" class="e">a</text><text x="7.014" y="1.67" class="e">name</text><text x="13.026" y="1.67" class="e">↑/↓</text><text x="18.036" y="1.67" class="e">Enter</text><text x="24.048" y="1.67" class="e">to</text><text x="27.054" y="1.67" class="e">confirm</text></symbol><symbol id="4"><text y="1.67" class="f">&gt;</text><text x="2.004" y="1.67" class="f">Ada</text></symbol><symbol id="5"><text x="2.004" y="1.67" class="e">Bob</text></symbol><symbol id="6"><text x="2.004" y="1.67" class="e">Chen</text></symbol><symbol id="7"><text x="2.004" y="1.67" class="e">Dana</text></symbol><symbol id="8"><text x="2.004" y="1.67" class="e">Ada</text></symbol><symbol id="9"><text y="1.67" class="f">&gt;</text><text x="2.004" y="1.67" class="f">Bob</text></symbol><symbol id="10"><text y="1.67" class="f">&gt;</text><text x="2.004" y="1.67" class="f">Chen</text></symbol><symbol id="11"><text y="1.67" class="e">hello</text><text x="6.012" y="1.67" class="e">Ada</text></symbol><symbol id="12"><text y="1.67" class="c">ink-cli-demo</text><text x="13.026" y="1.67" class="d">$</text><text x="15.03" y="1.67" class="e">exit</text></symbol><symbol id="a"><path fill="transparent" d="M0 0h98v11H0z"/></symbol><symbol id="b"><path fill="#6f7683" d="M0 0h1.102v2.171H0z"/></symbol></defs><path class="a" d="M0 0h98v23.881H0z"/><g style="animation-duration:12.7484s;animation-iteration-count:infinite;animation-name:i;animation-timing-function:steps(1,end)"><svg width="3136"><svg><use xlink:href="#a"/><use xlink:href="#b" x="-.004"/></svg><svg x="98"><use xlink:href="#a"/><use xlink:href="#b" x="-.004"/></svg><svg x="196"><use xlink:href="#a"/><use xlink:href="#b" x="14.996"/><use xlink:href="#1"/></svg><svg x="294"><use xlink:href="#a"/><use xlink:href="#b" x="15.996"/><text y="1.67" class="c">ink-cli-demo</text><text x="13.026" y="1.67" class="d">$</text><text x="15.03" y="1.67" class="e">.</text></svg><svg x="392"><use xlink:href="#a"/><use xlink:href="#b" x="16.996"/><text y="1.67" class="c">ink-cli-demo</text><text x="13.026" y="1.67" class="d">$</text><text x="15.03" y="1.67" class="e">./</text></svg><svg x="490"><use xlink:href="#a"/><use xlink:href="#b" x="17.996"/><text y="1.67" class="c">ink-cli-demo</text><text x="13.026" y="1.67" class="d">$</text><text x="15.03" y="1.67" class="e">./i</text></svg><svg x="588"><use xlink:href="#a"/><use xlink:href="#b" x="18.996"/><text y="1.67" class="c">ink-cli-demo</text><text x="13.026" y="1.67" class="d">$</text><text x="15.03" y="1.67" class="e">./in</text></svg><svg x="686"><use xlink:href="#a"/><use xlink:href="#b" x="19.996"/><text y="1.67" class="c">ink-cli-demo</text><text x="13.026" y="1.67" class="d">$</text><text x="15.03" y="1.67" class="e">./ink</text></svg><svg x="784"><use xlink:href="#a"/><use xlink:href="#b" x="20.996"/><text y="1.67" class="c">ink-cli-demo</text><text x="13.026" y="1.67" class="d">$</text><text x="15.03" y="1.67" class="e">./ink-</text></svg><svg x="882"><use xlink:href="#a"/><use xlink:href="#b" x="45.996"/><use xlink:href="#2"/></svg><svg x="980"><use xlink:href="#a"/><use xlink:href="#b" x="-.004" y="2.146"/><use xlink:href="#2"/></svg><svg x="1078"><use xlink:href="#a"/><use xlink:href="#b" x="-.004" y="2.146"/><use xlink:href="#2"/></svg><svg x="1176"><use xlink:href="#a"/><use xlink:href="#2"/></svg><svg x="1274"><use xlink:href="#a"/><use xlink:href="#2"/><use xlink:href="#3" y="2.171"/><use xlink:href="#4" y="4.342"/><use xlink:href="#5" y="6.513"/><use xlink:href="#6" y="8.684"/><use xlink:href="#7" y="10.855"/></svg><svg x="1372"><use xlink:href="#a"/><use xlink:href="#2"/><use xlink:href="#3" y="2.171"/><use xlink:href="#4" y="4.342"/><use xlink:href="#5" y="6.513"/><use xlink:href="#6" y="8.684"/><use xlink:href="#7" y="10.855"/></svg><svg x="1470"><use xlink:href="#a"/><use xlink:href="#2"/><use xlink:href="#3" y="2.171"/><use xlink:href="#8" y="4.342"/><use xlink:href="#9" y="6.513"/><use xlink:href="#6" y="8.684"/><use xlink:href="#7" y="10.855"/></svg><svg x="1568"><use xlink:href="#a"/><use xlink:href="#2"/><use xlink:href="#3" y="2.171"/><use xlink:href="#8" y="4.342"/><use xlink:href="#5" y="6.513"/><use xlink:href="#10" y="8.684"/><use xlink:href="#7" y="10.855"/></svg><svg x="1666"><use xlink:href="#a"/><use xlink:href="#2"/><use xlink:href="#3" y="2.171"/><use xlink:href="#8" y="4.342"/><use xlink:href="#5" y="6.513"/><use xlink:href="#6" y="8.684"/><text y="12.525" class="f">&gt;</text><text x="2.004" y="12.525" class="f">Dana</text></svg><svg x="1764"><use xlink:href="#a"/><use xlink:href="#2"/><use xlink:href="#3" y="2.171"/><use xlink:href="#8" y="4.342"/><use xlink:href="#5" y="6.513"/><use xlink:href="#10" y="8.684"/><use xlink:href="#7" y="10.855"/></svg><svg x="1862"><use xlink:href="#a"/><use xlink:href="#2"/><use xlink:href="#3" y="2.171"/><use xlink:href="#8" y="4.342"/><use xlink:href="#9" y="6.513"/><use xlink:href="#6" y="8.684"/><use xlink:href="#7" y="10.855"/></svg><svg x="1960"><use xlink:href="#a"/><use xlink:href="#2"/><use xlink:href="#3" y="2.171"/><use xlink:href="#4" y="4.342"/><use xlink:href="#5" y="6.513"/><use xlink:href="#6" y="8.684"/><use xlink:href="#7" y="10.855"/></svg><svg x="2058"><use xlink:href="#a"/><use xlink:href="#2"/><use xlink:href="#11" y="2.171"/></svg><svg x="2156"><use xlink:href="#a"/><use xlink:href="#b" x="-.004" y="4.317"/><use xlink:href="#2"/><use xlink:href="#11" y="2.171"/></svg><svg x="2254"><use xlink:href="#a"/><use xlink:href="#b" x="-.004" y="4.317"/><use xlink:href="#2"/><use xlink:href="#11" y="2.171"/></svg><svg x="2352"><use xlink:href="#a"/><use xlink:href="#b" x="-.004" y="4.317"/><use xlink:href="#2"/><use xlink:href="#11" y="2.171"/></svg><svg x="2450"><use xlink:href="#a"/><use xlink:href="#b" x="-.004" y="4.317"/><use xlink:href="#2"/><use xlink:href="#11" y="2.171"/></svg><svg x="2548"><use xlink:href="#a"/><use xlink:href="#b" x="14.996" y="4.317"/><use xlink:href="#2"/><use xlink:href="#11" y="2.171"/><use xlink:href="#1" y="4.342"/></svg><svg x="2646"><use xlink:href="#a"/><use xlink:href="#b" x="15.996" y="4.317"/><use xlink:href="#2"/><use xlink:href="#11" y="2.171"/><text y="6.012" class="c">ink-cli-demo</text><text x="13.026" y="6.012" class="d">$</text><text x="15.03" y="6.012" class="e">e</text></svg><svg x="2744"><use xlink:href="#a"/><use xlink:href="#b" x="16.996" y="4.317"/><use xlink:href="#2"/><use xlink:href="#11" y="2.171"/><text y="6.012" class="c">ink-cli-demo</text><text x="13.026" y="6.012" class="d">$</text><text x="15.03" y="6.012" class="e">ex</text></svg><svg x="2842"><use xlink:href="#a"/><use xlink:href="#b" x="17.996" y="4.317"/><use xlink:href="#2"/><use xlink:href="#11" y="2.171"/><text y="6.012" class="c">ink-cli-demo</text><text x="13.026" y="6.012" class="d">$</text><text x="15.03" y="6.012" class="e">exi</text></svg><svg x="2940"><use xlink:href="#a"/><use xlink:href="#b" x="18.996" y="4.317"/><use xlink:href="#2"/><use xlink:href="#11" y="2.171"/><use xlink:href="#12" y="4.342"/></svg><svg x="3038"><use xlink:href="#a"/><use xlink:href="#b" x="-.004" y="6.488"/><use xlink:href="#2"/><use xlink:href="#11" y="2.171"/><use xlink:href="#12" y="4.342"/></svg></svg></g></g></svg></svg>